<svg version="1.2" xmlns="http://www.w3.org/2000/svg" viewBox="0 0 5000 5000" width="250" height="250"><defs><linearGradient id="P" gradientUnits="userSpaceOnUse"/><linearGradient id="g1" x1="4889.7" y1="1260.1" x2="4712" y2="2440.2" href="#P"><stop stop-color="#cedcf9"/><stop offset="1" stop-color="#c3d2ff"/></linearGradient><linearGradient id="g2" x1="386.3" y1="4043" x2="386.3" y2="3137.2" href="#P"><stop stop-color="#cedcf9"/><stop offset="1" stop-color="#c3d2ff"/></linearGradient><linearGradient id="g3" x1="3863.4" y1="1693.1" x2="4173.1" y2="1693.1" href="#P"><stop stop-color="#909eff"/><stop offset="1" stop-color="#6977e3"/></linearGradient><linearGradient id="g4" x1="4324.1" y1="3764.4" x2="4127.6" y2="3764.4" href="#P"><stop stop-color="#909eff"/><stop offset="1" stop-color="#6977e3"/></linearGradient><linearGradient id="g5" x1="4063.1" y1="1855.8" x2="4063.1" y2="1823.4" href="#P"><stop stop-color="#d1deff"/><stop offset="1" stop-color="#b2c7ff"/></linearGradient><linearGradient id="g6" x1="4063.1" y1="2053.1" x2="4063.1" y2="1958.4" href="#P"><stop stop-color="#d1deff"/><stop offset="1" stop-color="#b2c7ff"/></linearGradient><linearGradient id="g7" x1="4093.5" y1="1922.8" x2="4093.5" y2="1882.2" href="#P"><stop stop-color="#909eff"/><stop offset="1" stop-color="#6977e3"/></linearGradient><linearGradient id="g8" x1="4154.5" y1="1922.8" x2="4154.5" y2="1882.2" href="#P"><stop stop-color="#fadf68"/><stop offset="1" stop-color="#eac250"/></linearGradient><linearGradient id="g9" x1="4215.5" y1="1922.8" x2="4215.5" y2="1882.2" href="#P"><stop stop-color="#3dcfa4"/><stop offset="1" stop-color="#30bb93"/></linearGradient><linearGradient id="g10" x1="4276.5" y1="1922.8" x2="4276.5" y2="1882.2" href="#P"><stop stop-color="#f34b6d"/><stop offset="1" stop-color="#e24067"/></linearGradient><linearGradient id="g11" x1="3863.9" y1="2053.1" x2="3863.9" y2="1823.4" href="#P"><stop stop-color="#d1deff"/><stop offset="1" stop-color="#b2c7ff"/></linearGradient><linearGradient id="g12" x1="3955.3" y1="1970.8" x2="3923.6" y2="2049.5" href="#P"><stop stop-color="#ebf2ff"/><stop offset="1" stop-color="#e1e8ff"/></linearGradient><linearGradient id="g13" x1="3743.4" y1="2053.1" x2="3743.4" y2="1823.4" href="#P"><stop stop-color="#d1deff"/><stop offset="1" stop-color="#b2c7ff"/></linearGradient><linearGradient id="g14" x1="3757.8" y1="2038.7" x2="3757.8" y2="1837.8" href="#P"><stop stop-color="#ebf2ff"/><stop offset="1" stop-color="#e1e8ff"/></linearGradient><linearGradient id="g15" x1="3622.8" y1="2053.1" x2="3622.8" y2="1823.4" href="#P"><stop stop-color="#d1deff"/><stop offset="1" stop-color="#b2c7ff"/></linearGradient><linearGradient id="g16" x1="3637.2" y1="2038.7" x2="3637.2" y2="1837.8" href="#P"><stop stop-color="#ebf2ff"/><stop offset="1" stop-color="#e1e8ff"/></linearGradient><linearGradient id="g17" x1="4063.1" y1="2251" x2="4063.1" y2="2218.6" href="#P"><stop stop-color="#d1deff"/><stop offset="1" stop-color="#b2c7ff"/></linearGradient><linearGradient id="g18" x1="4063.1" y1="2448.4" x2="4063.1" y2="2353.7" href="#P"><stop stop-color="#d1deff"/><stop offset="1" stop-color="#b2c7ff"/></linearGradient><linearGradient id="g19" x1="4093.5" y1="2318" x2="4093.5" y2="2277.4" href="#P"><stop stop-color="#909eff"/><stop offset="1" stop-color="#6977e3"/></linearGradient><linearGradient id="g20" x1="4154.5" y1="2318" x2="4154.5" y2="2277.4" href="#P"><stop stop-color="#fadf68"/><stop offset="1" stop-color="#eac250"/></linearGradient><linearGradient id="g21" x1="4215.5" y1="2318" x2="4215.5" y2="2277.4" href="#P"><stop stop-color="#3dcfa4"/><stop offset="1" stop-color="#30bb93"/></linearGradient><linearGradient id="g22" x1="4276.5" y1="2318" x2="4276.5" y2="2277.4" href="#P"><stop stop-color="#f34b6d"/><stop offset="1" stop-color="#e24067"/></linearGradient><linearGradient id="g23" x1="3863.9" y1="2448.3" x2="3863.9" y2="2218.6" href="#P"><stop stop-color="#d1deff"/><stop offset="1" stop-color="#b2c7ff"/></linearGradient><linearGradient id="g24" x1="3878.3" y1="2433.9" x2="3878.3" y2="2233" href="#P"><stop stop-color="#ebf2ff"/><stop offset="1" stop-color="#e1e8ff"/></linearGradient><linearGradient id="g25" x1="3743.4" y1="2448.3" x2="3743.4" y2="2218.6" href="#P"><stop stop-color="#d1deff"/><stop offset="1" stop-color="#b2c7ff"/></linearGradient><linearGradient id="g26" x1="3757.8" y1="2433.9" x2="3757.8" y2="2233" href="#P"><stop stop-color="#ebf2ff"/><stop offset="1" stop-color="#e1e8ff"/></linearGradient><linearGradient id="g27" x1="3622.8" y1="2448.3" x2="3622.8" y2="2218.6" href="#P"><stop stop-color="#d1deff"/><stop offset="1" stop-color="#b2c7ff"/></linearGradient><linearGradient id="g28" x1="3637.2" y1="2433.9" x2="3637.2" y2="2233" href="#P"><stop stop-color="#ebf2ff"/><stop offset="1" stop-color="#e1e8ff"/></linearGradient><linearGradient id="g29" x1="4063.1" y1="2646.3" x2="4063.1" y2="2613.9" href="#P"><stop stop-color="#d1deff"/><stop offset="1" stop-color="#b2c7ff"/></linearGradient><linearGradient id="g30" x1="4063.1" y1="2843.6" x2="4063.1" y2="2748.9" href="#P"><stop stop-color="#d1deff"/><stop offset="1" stop-color="#b2c7ff"/></linearGradient><linearGradient id="g31" x1="4093.5" y1="2713.3" x2="4093.5" y2="2672.7" href="#P"><stop stop-color="#909eff"/><stop offset="1" stop-color="#6977e3"/></linearGradient><linearGradient id="g32" x1="4154.5" y1="2713.3" x2="4154.5" y2="2672.7" href="#P"><stop stop-color="#fadf68"/><stop offset="1" stop-color="#eac250"/></linearGradient><linearGradient id="g33" x1="4215.5" y1="2713.3" x2="4215.5" y2="2672.7" href="#P"><stop stop-color="#3dcfa4"/><stop offset="1" stop-color="#30bb93"/></linearGradient><linearGradient id="g34" x1="4276.5" y1="2713.3" x2="4276.5" y2="2672.7" href="#P"><stop stop-color="#f34b6d"/><stop offset="1" stop-color="#e24067"/></linearGradient><linearGradient id="g35" x1="3863.9" y1="2843.6" x2="3863.9" y2="2613.9" href="#P"><stop stop-color="#d1deff"/><stop offset="1" stop-color="#b2c7ff"/></linearGradient><linearGradient id="g36" x1="3878.3" y1="2829.2" x2="3878.3" y2="2628.3" href="#P"><stop stop-color="#ebf2ff"/><stop offset="1" stop-color="#e1e8ff"/></linearGradient><linearGradient id="g37" x1="3743.4" y1="2843.6" x2="3743.4" y2="2613.9" href="#P"><stop stop-color="#d1deff"/><stop offset="1" stop-color="#b2c7ff"/></linearGradient><linearGradient id="g38" x1="3757.8" y1="2829.2" x2="3757.8" y2="2628.3" href="#P"><stop stop-color="#ebf2ff"/><stop offset="1" stop-color="#e1e8ff"/></linearGradient><linearGradient id="g39" x1="3622.8" y1="2843.6" x2="3622.8" y2="2613.9" href="#P"><stop stop-color="#d1deff"/><stop offset="1" stop-color="#b2c7ff"/></linearGradient><linearGradient id="g40" x1="3637.2" y1="2829.2" x2="3637.2" y2="2628.3" href="#P"><stop stop-color="#ebf2ff"/><stop offset="1" stop-color="#e1e8ff"/></linearGradient><linearGradient id="g41" x1="4063.1" y1="3041.6" x2="4063.1" y2="3009.1" href="#P"><stop stop-color="#d1deff"/><stop offset="1" stop-color="#b2c7ff"/></linearGradient><linearGradient id="g42" x1="4063.1" y1="3238.9" x2="4063.1" y2="3144.2" href="#P"><stop stop-color="#d1deff"/><stop offset="1" stop-color="#b2c7ff"/></linearGradient><linearGradient id="g43" x1="4093.5" y1="3108.6" x2="4093.5" y2="3067.9" href="#P"><stop stop-color="#909eff"/><stop offset="1" stop-color="#6977e3"/></linearGradient><linearGradient id="g44" x1="4154.5" y1="3108.6" x2="4154.5" y2="3067.9" href="#P"><stop stop-color="#fadf68"/><stop offset="1" stop-color="#eac250"/></linearGradient><linearGradient id="g45" x1="4215.5" y1="3108.6" x2="4215.5" y2="3067.9" href="#P"><stop stop-color="#3dcfa4"/><stop offset="1" stop-color="#30bb93"/></linearGradient><linearGradient id="g46" x1="4276.5" y1="3108.6" x2="4276.5" y2="3067.9" href="#P"><stop stop-color="#f34b6d"/><stop offset="1" stop-color="#e24067"/></linearGradient><linearGradient id="g47" x1="3863.9" y1="3238.8" x2="3863.9" y2="3009.1" href="#P"><stop stop-color="#d1deff"/><stop offset="1" stop-color="#b2c7ff"/></linearGradient><linearGradient id="g48" x1="3878.3" y1="3224.4" x2="3878.3" y2="3023.5" href="#P"><stop stop-color="#ebf2ff"/><stop offset="1" stop-color="#e1e8ff"/></linearGradient><linearGradient id="g49" x1="3743.4" y1="3238.8" x2="3743.4" y2="3009.1" href="#P"><stop stop-color="#d1deff"/><stop offset="1" stop-color="#b2c7ff"/></linearGradient><linearGradient id="g50" x1="3757.8" y1="3224.4" x2="3757.8" y2="3023.5" href="#P"><stop stop-color="#ebf2ff"/><stop offset="1" stop-color="#e1e8ff"/></linearGradient><linearGradient id="g51" x1="3622.8" y1="3238.8" x2="3622.8" y2="3009.1" href="#P"><stop stop-color="#d1deff"/><stop offset="1" stop-color="#b2c7ff"/></linearGradient><linearGradient id="g52" x1="3637.2" y1="3224.4" x2="3637.2" y2="3023.5" href="#P"><stop stop-color="#ebf2ff"/><stop offset="1" stop-color="#e1e8ff"/></linearGradient><linearGradient id="g53" x1="4063.1" y1="3436.8" x2="4063.1" y2="3404.4" href="#P"><stop stop-color="#d1deff"/><stop offset="1" stop-color="#b2c7ff"/></linearGradient><linearGradient id="g54" x1="4063.1" y1="3634.1" x2="4063.1" y2="3539.4" href="#P"><stop stop-color="#d1deff"/><stop offset="1" stop-color="#b2c7ff"/></linearGradient><linearGradient id="g55" x1="4093.5" y1="3503.8" x2="4093.5" y2="3463.2" href="#P"><stop stop-color="#909eff"/><stop offset="1" stop-color="#6977e3"/></linearGradient><linearGradient id="g56" x1="4154.5" y1="3503.8" x2="4154.5" y2="3463.2" href="#P"><stop stop-color="#fadf68"/><stop offset="1" stop-color="#eac250"/></linearGradient><linearGradient id="g57" x1="4215.5" y1="3503.8" x2="4215.5" y2="3463.2" href="#P"><stop stop-color="#3dcfa4"/><stop offset="1" stop-color="#30bb93"/></linearGradient><linearGradient id="g58" x1="4276.5" y1="3503.8" x2="4276.5" y2="3463.2" href="#P"><stop stop-color="#f34b6d"/><stop offset="1" stop-color="#e24067"/></linearGradient><linearGradient id="g59" x1="3863.9" y1="3634.1" x2="3863.9" y2="3404.4" href="#P"><stop stop-color="#d1deff"/><stop offset="1" stop-color="#b2c7ff"/></linearGradient><linearGradient id="g60" x1="3878.3" y1="3619.7" x2="3878.3" y2="3418.8" href="#P"><stop stop-color="#ebf2ff"/><stop offset="1" stop-color="#e1e8ff"/></linearGradient><linearGradient id="g61" x1="3743.4" y1="3634.1" x2="3743.4" y2="3404.4" href="#P"><stop stop-color="#d1deff"/><stop offset="1" stop-color="#b2c7ff"/></linearGradient><linearGradient id="g62" x1="3757.8" y1="3619.7" x2="3757.8" y2="3418.8" href="#P"><stop stop-color="#ebf2ff"/><stop offset="1" stop-color="#e1e8ff"/></linearGradient><linearGradient id="g63" x1="3622.8" y1="3634.1" x2="3622.8" y2="3404.4" href="#P"><stop stop-color="#d1deff"/><stop offset="1" stop-color="#b2c7ff"/></linearGradient><linearGradient id="g64" x1="3637.2" y1="3619.7" x2="3637.2" y2="3418.8" href="#P"><stop stop-color="#ebf2ff"/><stop offset="1" stop-color="#e1e8ff"/></linearGradient><linearGradient id="g65" x1="3059.9" y1="925.4" x2="3256.2" y2="948.5" href="#P"><stop stop-color="#d1deff"/><stop offset="1" stop-color="#b2c7ff"/></linearGradient><linearGradient id="g66" x1="2498.8" y1="179.1" x2="2797" y2="504.6" href="#P"><stop stop-color="#d1deff"/><stop offset="1" stop-color="#b2c7ff"/></linearGradient><linearGradient id="g67" x1="1937.1" y1="1240.1" x2="2092.8" y2="1240.1" href="#P"><stop stop-color="#909eff"/><stop offset="1" stop-color="#6977e3"/></linearGradient><linearGradient id="g68" x1="2390.5" y1="1667.4" x2="1923.9" y2="2476.1" href="#P"><stop stop-color="#909eff"/><stop offset="1" stop-color="#6977e3"/></linearGradient><linearGradient id="g69" x1="2970" y1="1240.1" x2="3051.7" y2="1240.1" href="#P"><stop stop-color="#d1deff"/><stop offset="1" stop-color="#b2c7ff"/></linearGradient><linearGradient id="g70" x1="3099" y1="1363.6" x2="3058.4" y2="1819.6" href="#P"><stop stop-color="#ebf2ff"/><stop offset="1" stop-color="#e1e8ff"/></linearGradient><linearGradient id="g71" x1="2970" y1="1788.1" x2="3051.7" y2="1788.1" href="#P"><stop stop-color="#d1deff"/><stop offset="1" stop-color="#b2c7ff"/></linearGradient><linearGradient id="g72" x1="3088" y1="1878.4" x2="3058.6" y2="2208.3" href="#P"><stop stop-color="#ebf2ff"/><stop offset="1" stop-color="#e1e8ff"/></linearGradient><linearGradient id="g73" x1="2386.3" y1="1367.8" x2="2451.2" y2="1367.8" href="#P"><stop stop-color="#909eff"/><stop offset="1" stop-color="#6977e3"/></linearGradient><linearGradient id="g74" x1="2541.6" y1="1418.9" x2="2606.6" y2="1418.9" href="#P"><stop stop-color="#f34b6d"/><stop offset="1" stop-color="#e24067"/></linearGradient><linearGradient id="g75" x1="2697" y1="1488.6" x2="2762" y2="1488.6" href="#P"><stop stop-color="#fadf68"/><stop offset="1" stop-color="#eac250"/></linearGradient><linearGradient id="g76" x1="2852.4" y1="1455.5" x2="2917.3" y2="1455.5" href="#P"><stop stop-color="#3dcfa4"/><stop offset="1" stop-color="#30bb93"/></linearGradient><linearGradient id="g77" x1="2483.8" y1="1922.3" x2="2471.2" y2="2063.4" href="#P"><stop stop-color="#909eff"/><stop offset="1" stop-color="#6977e3"/></linearGradient><linearGradient id="g78" x1="2534.1" y1="1881.3" x2="2795.4" y2="1881.3" href="#P"><stop stop-color="#d1deff"/><stop offset="1" stop-color="#b2c7ff"/></linearGradient><linearGradient id="g79" x1="2534.1" y1="1968.6" x2="2994.1" y2="1968.6" href="#P"><stop stop-color="#d1deff"/><stop offset="1" stop-color="#b2c7ff"/></linearGradient><linearGradient id="g80" x1="2534.1" y1="2014.8" x2="2994.1" y2="2014.8" href="#P"><stop stop-color="#d1deff"/><stop offset="1" stop-color="#b2c7ff"/></linearGradient><linearGradient id="g81" x1="2534.1" y1="2014.8" x2="2994.1" y2="2014.8" href="#P"><stop stop-color="#d1deff"/><stop offset="1" stop-color="#b2c7ff"/></linearGradient><linearGradient id="g82" x1="2267.5" y1="2274.9" x2="2404.4" y2="2274.9" href="#P"><stop stop-color="#ebf2ff"/><stop offset="1" stop-color="#e1e8ff"/></linearGradient><linearGradient id="g83" x1="2267.5" y1="2371.7" x2="2404.4" y2="2371.7" href="#P"><stop stop-color="#fadf68"/><stop offset="1" stop-color="#eac250"/></linearGradient><linearGradient id="g84" x1="2478.1" y1="2274.9" x2="2615" y2="2274.9" href="#P"><stop stop-color="#ebf2ff"/><stop offset="1" stop-color="#e1e8ff"/></linearGradient><linearGradient id="g85" x1="2624" y1="2419.5" x2="2617.6" y2="2515.3" href="#P"><stop stop-color="#f34b6d"/><stop offset="1" stop-color="#e24067"/></linearGradient><linearGradient id="g86" x1="2688.6" y1="2274.9" x2="2825.5" y2="2274.9" href="#P"><stop stop-color="#ebf2ff"/><stop offset="1" stop-color="#e1e8ff"/></linearGradient><linearGradient id="g87" x1="2828" y1="2452.4" x2="2831.2" y2="2510.1" href="#P"><stop stop-color="#fadf68"/><stop offset="1" stop-color="#eac250"/></linearGradient><linearGradient id="g88" x1="2899.2" y1="2274.9" x2="3036.1" y2="2274.9" href="#P"><stop stop-color="#ebf2ff"/><stop offset="1" stop-color="#e1e8ff"/></linearGradient><linearGradient id="g89" x1="3042" y1="2369.3" x2="3038.8" y2="2495" href="#P"><stop stop-color="#f34b6d"/><stop offset="1" stop-color="#e24067"/></linearGradient><linearGradient id="g90" x1="2179.3" y1="2212.1" x2="2171" y2="2547.9" href="#P"><stop stop-color="#d1deff"/><stop offset="1" stop-color="#b2c7ff"/></linearGradient><linearGradient id="g91" x1="2160.4" y1="2212.1" x2="2152.1" y2="2547.9" href="#P"><stop stop-color="#ebf2ff"/><stop offset="1" stop-color="#e1e8ff"/></linearGradient><linearGradient id="g92" x1="1742.9" y1="2262.9" x2="2061.5" y2="2262.9" href="#P"><stop stop-color="#909eff"/><stop offset="1" stop-color="#6977e3"/></linearGradient><linearGradient id="g93" x1="1175.9" y1="1195.5" x2="1238.4" y2="1158.9" href="#P"><stop stop-color="#909eff"/><stop offset="1" stop-color="#6977e3"/></linearGradient><linearGradient id="g94" x1="1046.5" y1="1393.9" x2="1046.5" y2="1034.2" href="#P"><stop stop-color="#909eff"/><stop offset="1" stop-color="#6977e3"/></linearGradient><linearGradient id="g95" x1="1360.7" y1="1046.4" x2="1360.7" y2="818.3" href="#P"><stop stop-color="#909eff"/><stop offset="1" stop-color="#6977e3"/></linearGradient><linearGradient id="g96" x1="3994.5" y1="1011.8" x2="3934.6" y2="1237" href="#P"><stop stop-color="#3dcfa4"/><stop offset="1" stop-color="#30bb93"/></linearGradient><linearGradient id="g97" x1="2686.4" y1="753.8" x2="2635.6" y2="944.8" href="#P"><stop stop-color="#909eff"/><stop offset="1" stop-color="#6977e3"/></linearGradient></defs><style>.a{fill:url(#g1)}.b{fill:url(#g2)}.c{fill:#111228}.d{fill:url(#g3)}.e{fill:url(#g4)}.f{fill:#fff}.g{fill:url(#g5)}.h{fill:url(#g6)}.i{fill:url(#g7)}.j{fill:url(#g8)}.k{fill:url(#g9)}.l{fill:url(#g10)}.m{fill:url(#g11)}.n{fill:url(#g12)}.o{fill:url(#g13)}.p{fill:url(#g14)}.q{fill:url(#g15)}.r{fill:url(#g16)}.s{fill:url(#g17)}.t{fill:url(#g18)}.u{fill:url(#g19)}.v{fill:url(#g20)}.w{fill:url(#g21)}.x{fill:url(#g22)}.y{fill:url(#g23)}.z{fill:url(#g24)}.A{fill:url(#g25)}.B{fill:url(#g26)}.C{fill:url(#g27)}.D{fill:url(#g28)}.E{fill:url(#g29)}.F{fill:url(#g30)}.G{fill:url(#g31)}.H{fill:url(#g32)}.I{fill:url(#g33)}.J{fill:url(#g34)}.K{fill:url(#g35)}.L{fill:url(#g36)}.M{fill:url(#g37)}.N{fill:url(#g38)}.O{fill:url(#g39)}.P{fill:url(#g40)}.Q{fill:url(#g41)}.R{fill:url(#g42)}.S{fill:url(#g43)}.T{fill:url(#g44)}.U{fill:url(#g45)}.V{fill:url(#g46)}.W{fill:url(#g47)}.X{fill:url(#g48)}.Y{fill:url(#g49)}.Z{fill:url(#g50)}.a0{fill:url(#g51)}.a1{fill:url(#g52)}.a2{fill:url(#g53)}.a3{fill:url(#g54)}.a4{fill:url(#g55)}.a5{fill:url(#g56)}.a6{fill:url(#g57)}.a7{fill:url(#g58)}.a8{fill:url(#g59)}.a9{fill:url(#g60)}.aa{fill:url(#g61)}.ab{fill:url(#g62)}.ac{fill:url(#g63)}.ad{fill:url(#g64)}.ae{fill:url(#g65)}.af{fill:url(#g66)}.ag{fill:#ff4129}.ah{fill:url(#g67)}.ai{fill:url(#g68)}.aj{fill:url(#g69)}.ak{fill:url(#g70)}.al{fill:url(#g71)}.am{fill:url(#g72)}.an{fill:#373a50}.ao{fill:url(#g73)}.ap{fill:url(#g74)}.aq{fill:url(#g75)}.ar{fill:url(#g76)}.as{fill:url(#g77)}.at{fill:url(#g78)}.au{fill:url(#g79)}.av{fill:url(#g80)}.aw{fill:url(#g81)}.ax{fill:url(#g82)}.ay{fill:url(#g83)}.az{fill:url(#g84)}.aA{fill:url(#g85)}.aB{fill:url(#g86)}.aC{fill:url(#g87)}.aD{fill:url(#g88)}.aE{fill:url(#g89)}.aF{fill:url(#g90)}.aG{fill:url(#g91)}.aH{fill:url(#g92)}.aI{fill:#060405}.aJ{fill:#ffdad9}.aK{fill:#657bff}.aL{fill:#3dcfa4}.aM{fill:#fecdcb}.aN{fill:url(#g93)}.aO{fill:url(#g94)}.aP{fill:url(#g95)}.aQ{fill:url(#g96)}.aR{fill:url(#g97)}.aS{fill:#525a70}</style><path class="a" d="m4181 3306.4h-3348.9c-417.4 0-608.9-494.5-289.3-748.9 2.7-2.2 5.4-4.2 8.1-6.4 72.8-57.1 120.4-140.7 120.4-263 28.4-160.3-128.2-203-170.1-480.8-73.8-488.3 177.1-809.1 457.5-972.4 935-544.4 2709.3-544.4 3473.2-17.6 147 101.5 224.9 388.4 165.4 523.8-366.1 833.8-167.7 1059-14.4 1353 147.2 282-70 612.3-401.9 612.3z"/><path class="b" d="m4650 3691.2v10c-1.3 208.5-334.7 312.3-1506.4 307.3-153.7-0.6-314.2-3.3-477.3-7.6-86.9 107.7-561.3 188.3-1132.9 185.9-632.9-2.8-1145.3-106.4-1144.3-231.3 0-14.8 7.3-29.3 21.1-43.2 59.5-59.9 54.8-142.9-3.2-203.7-12.3-12.8-18.8-25.5-18.7-37.9 0-3.6 0.1-7.3 0.3-11.2 7.4-197.5 190.3-352.7 408.6-352.5l3421.6 1.6c234.8 0 428.4 170.1 431.2 382.6z"/><path class="c" d="m4069.3 2190.2h-8.4v-33.6h8.4zm0-67.2h-8.4v-33.6h8.4zm0-67.2h-8.4v-33.6h8.4zm0-67.2h-8.4v-33.6h8.4zm0-67.1h-8.4v-33.6h8.4zm0-67.2h-8.4v-33.6h8.4zm0-67.2h-8.4v-33.6h8.4zm0-67.2h-8.4v-33.6h8.4zm0-67.2h-8.4v-33.6h8.4zm0-67.2h-8.4v-33.5h8.4zm0-67.2h-8.4v-33.6h8.4zm0-67.2h-8.4v-33.6h8.4zm0-67.2h-8.4v-33.6h8.4zm-15.7-63.5c-5.4-8.8-13.6-15.9-23.1-19.9l3.3-7.8c11.3 4.8 20.6 12.9 27 23.3zm-54.5-23.9h-33.6v-8.4h33.6zm-67.1 0h-33.6v-8.4h33.6zm-67.2 0h-33.6v-8.4h33.6zm-67.2 0h-33.6v-8.4h33.6zm-67.2 0h-33.6v-8.4h33.6zm-67.2 0h-33.6v-8.4h33.6zm-67.2 0h-33.6v-8.4h33.6zm-67.2 0h-33.6v-8.4h33.6zm-67.2 0h-33.6v-8.4h33.6zm-67.1 0h-33.6v-8.4h33.6zm-67.2 0h-33.6v-8.4h33.6zm-67.2 0h-33.6v-8.4h33.6zm-67.2 0h-33.6v-8.4h33.6zm-67.2 0h-33.6v-8.4h33.6z"/><path class="d" d="m4650 1720.4v2016.7c0 14-11.3 25.3-25.3 25.3h-238.3v-2067.3h238.3c14 0 25.3 11.4 25.3 25.3z"/><path class="e" d="m4515.3 1720.4v2016.7c0 14-11.3 25.3-25.2 25.3h-996.5c-14 0-25.3-11.3-25.3-25.3v-2016.7c0-13.9 11.3-25.3 25.3-25.3h996.5c13.9 0 25.2 11.4 25.2 25.3z"/><path class="f" d="m3540.3 2109.3v-342.2h903v342.2z"/><path class="g" d="m4356.7 1823.4v32.4h-291.6v-32.4z"/><path class="h" d="m4356.7 1958.4v94.7h-291.6v-94.7z"/><path class="i" d="m4136 1902.5c0 11.2-9 20.3-20.2 20.3-11.2 0-20.3-9.1-20.3-20.3 0-11.2 9.1-20.3 20.3-20.3 11.2 0 20.2 9.1 20.2 20.3z"/><path class="j" d="m4197 1902.5c0 11.2-9 20.3-20.2 20.3-11.2 0-20.3-9.1-20.3-20.3 0-11.2 9.1-20.3 20.3-20.3 11.2 0 20.2 9.1 20.2 20.3z"/><path class="k" d="m4258 1902.5c0 11.2-9 20.3-20.2 20.3-11.2 0-20.3-9.1-20.3-20.3 0-11.2 9.1-20.3 20.3-20.3 11.2 0 20.2 9.1 20.2 20.3z"/><path class="l" d="m4319 1902.5c0 11.2-9 20.3-20.2 20.3-11.2 0-20.3-9.1-20.3-20.3 0-11.2 9.1-20.3 20.3-20.3 11.2 0 20.2 9.1 20.2 20.3z"/><path class="m" d="m3940.2 1823.4v229.7h-74.3v-229.7z"/><path class="n" d="m3880.3 2038.7v-200.9h45.5v200.9z"/><path class="o" d="m3819.7 1823.4v229.7h-74.3v-229.7z"/><path class="p" d="m3759.8 2038.7v-200.9h45.5v200.9z"/><path class="q" d="m3699.1 1823.4v229.7h-74.3v-229.7z"/><path class="r" d="m3639.2 2038.7v-200.9h45.5v200.9z"/><path class="f" d="m3540.3 2504.6v-342.2h903v342.2z"/><path class="s" d="m4356.7 2218.6v32.4h-291.6v-32.4z"/><path class="t" d="m4356.7 2353.7v94.7h-291.6v-94.7z"/><path class="u" d="m4136 2297.8c0 11.1-9 20.2-20.2 20.2-11.2 0-20.3-9.1-20.3-20.2 0-11.2 9.1-20.4 20.3-20.4 11.2 0 20.2 9.2 20.2 20.4z"/><path class="v" d="m4197 2297.8c0 11.1-9 20.2-20.2 20.2-11.2 0-20.3-9.1-20.3-20.2 0-11.2 9.1-20.4 20.3-20.4 11.2 0 20.2 9.2 20.2 20.4z"/><path class="w" d="m4258 2297.8c0 11.1-9 20.2-20.2 20.2-11.2 0-20.3-9.1-20.3-20.2 0-11.2 9.1-20.4 20.3-20.4 11.2 0 20.2 9.2 20.2 20.4z"/><path class="x" d="m4319 2297.8c0 11.1-9 20.2-20.2 20.2-11.2 0-20.3-9.1-20.3-20.2 0-11.2 9.1-20.4 20.3-20.4 11.2 0 20.2 9.2 20.2 20.4z"/><path class="y" d="m3940.2 2218.6v229.7h-74.3v-229.7z"/><path class="z" d="m3880.3 2433.9v-200.9h45.5v200.9z"/><path class="A" d="m3819.7 2218.6v229.7h-74.3v-229.7z"/><path class="B" d="m3759.8 2433.9v-200.9h45.5v200.9z"/><path class="C" d="m3699.1 2218.6v229.7h-74.3v-229.7z"/><path class="D" d="m3639.2 2433.9v-200.9h45.5v200.9z"/><path class="f" d="m3540.3 2899.9v-342.3h903v342.3z"/><path class="E" d="m4356.7 2613.9v32.4h-291.6v-32.4z"/><path class="F" d="m4356.7 2748.9v94.7h-291.6v-94.7z"/><path class="G" d="m4136 2693c0 11.2-9 20.3-20.2 20.3-11.2 0-20.3-9.1-20.3-20.3 0-11.2 9.1-20.3 20.3-20.3 11.2 0 20.2 9.1 20.2 20.3z"/><path class="H" d="m4197 2693c0 11.2-9 20.3-20.2 20.3-11.2 0-20.3-9.1-20.3-20.3 0-11.2 9.1-20.3 20.3-20.3 11.2 0 20.2 9.1 20.2 20.3z"/><path class="I" d="m4258 2693c0 11.2-9 20.3-20.2 20.3-11.2 0-20.3-9.1-20.3-20.3 0-11.2 9.1-20.3 20.3-20.3 11.2 0 20.2 9.1 20.2 20.3z"/><path class="J" d="m4319 2693c0 11.2-9 20.3-20.2 20.3-11.2 0-20.3-9.1-20.3-20.3 0-11.2 9.1-20.3 20.3-20.3 11.2 0 20.2 9.1 20.2 20.3z"/><path class="K" d="m3940.2 2613.9v229.7h-74.3v-229.7z"/><path class="L" d="m3880.3 2829.2v-200.9h45.5v200.9z"/><path class="M" d="m3819.7 2613.9v229.7h-74.3v-229.7z"/><path class="N" d="m3759.8 2829.2v-200.9h45.5v200.9z"/><path class="O" d="m3699.1 2613.9v229.7h-74.3v-229.7z"/><path class="P" d="m3639.2 2829.2v-200.9h45.5v200.9z"/><path class="f" d="m3540.3 3295.1v-342.2h903v342.2z"/><path class="Q" d="m4356.7 3009.1v32.5h-291.6v-32.5z"/><path class="R" d="m4356.7 3144.2v94.7h-291.6v-94.7z"/><path class="S" d="m4136 3088.3c0 11.1-9 20.3-20.2 20.3-11.2-0.1-20.3-9.2-20.3-20.3 0-11.2 9.1-20.4 20.3-20.4 11.2 0 20.2 9.2 20.2 20.4z"/><path class="T" d="m4197 3088.3c0 11.1-9 20.3-20.2 20.3-11.2-0.1-20.3-9.2-20.3-20.3 0-11.2 9.1-20.4 20.3-20.4 11.2 0 20.2 9.2 20.2 20.4z"/><path class="U" d="m4258 3088.3c0 11.1-9 20.3-20.2 20.3-11.2-0.1-20.3-9.2-20.3-20.3 0-11.2 9.1-20.4 20.3-20.4 11.2 0 20.2 9.2 20.2 20.4z"/><path class="V" d="m4319 3088.3c0 11.1-9 20.3-20.2 20.3-11.2-0.1-20.3-9.2-20.3-20.3 0-11.2 9.1-20.4 20.3-20.4 11.2 0 20.2 9.2 20.2 20.4z"/><path class="W" d="m3940.2 3009.1v229.7h-74.3v-229.7z"/><path class="X" d="m3880.3 3224.4v-200.9h45.5v200.9z"/><path class="Y" d="m3819.7 3009.1v229.7h-74.3v-229.7z"/><path class="Z" d="m3759.8 3224.4v-200.9h45.5v200.9z"/><path class="a0" d="m3699.1 3009.1v229.7h-74.3v-229.7z"/><path class="a1" d="m3639.2 3224.4v-200.9h45.5v200.9z"/><path class="f" d="m3540.3 3690.4v-342.3h903v342.3z"/><path class="a2" d="m4356.7 3404.4v32.4h-291.6v-32.4z"/><path class="a3" d="m4356.7 3539.4v94.7h-291.6v-94.7z"/><path class="a4" d="m4136 3483.6c0 11.1-9 20.2-20.2 20.2-11.2 0-20.3-9.1-20.3-20.2 0-11.3 9.1-20.4 20.3-20.4 11.2 0 20.2 9.1 20.2 20.4z"/><path class="a5" d="m4197 3483.6c0 11.1-9 20.2-20.2 20.2-11.2 0-20.3-9.1-20.3-20.2 0-11.3 9.1-20.4 20.3-20.4 11.2 0 20.2 9.1 20.2 20.4z"/><path class="a6" d="m4258 3483.6c0 11.1-9 20.2-20.2 20.2-11.2 0-20.3-9.1-20.3-20.2 0-11.3 9.1-20.4 20.3-20.4 11.2 0 20.2 9.1 20.2 20.4z"/><path class="a7" d="m4319 3483.6c0 11.1-9 20.2-20.2 20.2-11.2 0-20.3-9.1-20.3-20.2 0-11.3 9.1-20.4 20.3-20.4 11.2 0 20.2 9.1 20.2 20.4z"/><path class="a8" d="m3940.2 3404.4v229.7h-74.3v-229.7z"/><path class="a9" d="m3880.3 3619.7v-200.9h45.5v200.9z"/><path class="aa" d="m3819.7 3404.4v229.7h-74.3v-229.7z"/><path class="ab" d="m3759.8 3619.7v-200.9h45.5v200.9z"/><path class="ac" d="m3699.1 3404.4v229.7h-74.3v-229.7z"/><path class="ad" d="m3639.2 3619.7v-200.9h45.5v200.9z"/><path class="ae" d="m3304.1 1035.4v85.9h-0.1v1424.2c0 46.3-37.3 83.7-83.7 83.7h-211.3v-1677.4h211.6c46.2 0 83.5 37.3 83.5 83.6z"/><path class="f" d="m3238.1 1121.3v1424.2c0 46.3-37.5 83.7-83.8 83.7h-1501.9c-46.3 0-83.9-37.4-83.9-83.7v-1509.8q0-4.5 0.5-8.9c-0.3 2.9-0.4 5.7-0.4 8.6v85.9z"/><path class="af" d="m3238.1 1035.4v85.9h-1669.5v-85.9c0-2.9 0.1-5.7 0.4-8.6 0.4-4.2 1.1-8.3 2.2-12.3 9.2-36.1 41.9-62.7 80.9-62.7h1502.5c46.2 0 83.5 37.4 83.5 83.6z"/><path class="f" d="m1806.9 1010.9c14.2 0 25.7 11.5 25.7 25.6 0 14.2-11.5 25.8-25.7 25.8-14.3 0-25.7-11.6-25.7-25.8 0-14.1 11.4-25.6 25.7-25.6z"/><path class="f" d="m1733.5 1010.9c14.2 0 25.7 11.5 25.7 25.6 0 14.2-11.5 25.8-25.7 25.8-14.2 0-25.6-11.6-25.6-25.8 0-14.1 11.4-25.6 25.6-25.6z"/><path class="f" d="m1660.1 1010.9c14.3 0 25.7 11.5 25.7 25.6 0 14.2-11.4 25.8-25.7 25.8-14.2 0-25.6-11.6-25.6-25.8 0-14.1 11.4-25.6 25.6-25.6z"/><path class="ag" d="m4100.9 1297.2c0 35.3-28.7 64-64.1 64-35.4 0-64.1-28.7-64.1-64 0-35.4 28.7-64.1 64.1-64.1 35.4 0 64.1 28.7 64.1 64.1z"/><path class="ah" d="m2150.9 1262.8v850.1c0 11.5-9.2 20.7-20.7 20.7h-107.6v-891.5h107.6c11.5 0 20.7 9.2 20.7 20.7z"/><path class="ai" d="m2124.6 1262.8v850.1c0 11.5-9.3 20.7-20.8 20.7h-547.2c-11.4 0-20.7-9.2-20.7-20.7v-850.1c0-11.5 9.3-20.7 20.7-20.7h547.2c11.5 0 20.8 9.2 20.8 20.7z"/><path class="f" d="m1765 1419.7h-164.3v-32.1h164.3z"/><path class="f" d="m1902.2 1518h-219.4v-32.1h219.4z"/><path class="f" d="m2045.8 1616.4h-363v-32.1h363z"/><path class="f" d="m1945 1714.7h-262.2v-32.1h262.2z"/><path class="f" d="m1776.3 1813.1h-164.3v-32.1h164.3z"/><path class="f" d="m1902.2 1911.4h-219.4v-32.1h219.4z"/><path class="f" d="m1772.4 2009.8h-164.3v-32.1h164.3z"/><path class="aj" d="m3087.4 1263.1v455c0 11.7-9.4 21-21 21h-53.5v-497h53.5c11.6 0 21 9.4 21 21z"/><path class="ak" d="m3064.4 1263.1v455c0 11.7-9.5 21-21 21h-783.2c-11.6 0-21-9.3-21-21v-455c0-11.6 9.4-21 21-21h783.2c11.5 0 21 9.4 21 21z"/><path class="al" d="m3087.4 1811.2v298.1c0 11.7-9.4 21-21 21h-53.5v-340.2h53.5c11.6 0 21 9.5 21 21.1z"/><path class="am" d="m3064.4 1811.2v298.1c0 11.7-9.5 21-21 21h-783.2c-11.6 0-21-9.3-21-21v-298.1c0-11.6 9.4-21.1 21-21.1h783.2c11.5 0 21 9.5 21 21.1z"/><path class="an" d="m2419.8 1672c-4.7 0-8.5-3.8-8.5-8.5v-345.8c0-4.7 3.8-8.5 8.5-8.5 4.7 0 8.5 3.8 8.5 8.5v345.8c0 4.7-3.8 8.5-8.5 8.5z"/><path class="ao" d="m2451.2 1374.9v92.1c0 2.7-2.2 5-4.9 5h-55.1c-2.7 0-4.9-2.3-4.9-5v-92.1c0-2.7 2.2-5.1 4.9-5.1h55.1c2.7 0 4.9 2.4 4.9 5.1z"/><path class="an" d="m2575.2 1672c-4.7 0-8.5-3.8-8.5-8.5v-345.8c0-4.7 3.8-8.5 8.5-8.5 4.7 0 8.5 3.8 8.5 8.5v345.8c0 4.7-3.8 8.5-8.5 8.5z"/><path class="ap" d="m2606.6 1426v92.1c0 2.7-2.2 5-5 5h-55c-2.7 0-5-2.3-5-5v-92.1c0-2.7 2.3-5.1 5-5.1h55c2.8 0 5 2.4 5 5.1z"/><path class="an" d="m2730.5 1672c-4.7 0-8.5-3.8-8.5-8.5v-345.8c0-4.7 3.8-8.5 8.5-8.5 4.7 0 8.5 3.8 8.5 8.5v345.8c0 4.7-3.8 8.5-8.5 8.5z"/><path class="aq" d="m2762 1495.7v92.1c0 2.8-2.3 5-5 5h-55c-2.8 0-5-2.2-5-5v-92.1c0-2.7 2.2-5.1 5-5.1h55c2.7 0 5 2.4 5 5.1z"/><path class="an" d="m2885.9 1672c-4.7 0-8.5-3.8-8.5-8.5v-345.8c0-4.7 3.8-8.5 8.5-8.5 4.7 0 8.5 3.8 8.5 8.5v345.8c0 4.7-3.8 8.5-8.5 8.5z"/><path class="ar" d="m2917.3 1462.7v92c0 2.8-2.2 5-4.9 5h-55.1c-2.7 0-4.9-2.2-4.9-5v-92c0-2.8 2.2-5.2 4.9-5.2h55.1c2.7 0 4.9 2.4 4.9 5.2z"/><path class="as" d="m2473.7 1965.3c0 48.2-39.2 87.4-87.4 87.4-48.3 0-87.5-39.2-87.5-87.4 0-48.3 39.2-87.4 87.5-87.4 48.2 0 87.4 39.1 87.4 87.4z"/><path class="f" d="m2424.4 2003.6h-76.3c0.5-20.6 17.4-37.2 38.2-37.2 20.7 0 37.6 16.6 38.1 37.2z"/><path class="f" d="m2371 1942.1c0-8.4 6.8-15.2 15.3-15.2 8.4 0 15.2 6.8 15.2 15.2 0 8.4-6.8 15.3-15.2 15.3-8.5 0-15.3-6.9-15.3-15.3z"/><path class="at" d="m2795.4 1924.6h-261.3v-41.3h261.3z"/><path class="au" d="m2994.1 1990.9h-460v-20.3h460z"/><path class="av" d="m2782.7 2016.8v20.3h-83.3v-20.3z"/><path class="aw" d="m2668.7 2037.1h-134.6v-20.3h134.6z"/><path class="ax" d="m2404.4 2525.1h-136.9v-248.2h136.9z"/><path class="ay" d="m2404.4 2525.1h-136.9v-151.4h136.9z"/><path class="az" d="m2615 2525.1h-136.9v-248.2h136.9z"/><path class="aA" d="m2615 2525.1h-136.9v-128h136.9z"/><path class="aB" d="m2825.5 2525.1h-136.9v-248.2h136.9z"/><path class="aC" d="m2825.5 2525.1h-136.9v-80.6h136.9z"/><path class="aD" d="m3036.1 2525.1h-136.9v-248.2h136.9z"/><path class="aE" d="m3036.1 2525.1h-136.9v-162.1h136.9z"/><path class="aF" d="m2169.7 2242.3v262.9c0 17.2-14 31.2-31.2 31.2h-434.8c-17.1 0-31.1-14-31.1-31.2v-262.9c0-17.3 14-31.2 31.1-31.2h434.8c17.2 0 31.2 13.9 31.2 31.2z"/><path class="aG" d="m2150.7 2242.3v262.9c0 17.2-13.9 31.2-31.1 31.2h-434.8c-17.2 0-31.1-14-31.1-31.2v-262.9c0-17.3 13.9-31.2 31.1-31.2h434.8c17.2 0 31.1 13.9 31.1 31.2z"/><path fill-rule="evenodd" class="aH" d="m2061.5 2304v149.1c0 21.5-17.6 39.1-39.3 39.1h-240c-21.7 0-39.3-17.6-39.3-39.1v-149.1c0-21.5 17.6-39.1 39.3-39.1h240c21.7 0 39.3 17.6 39.3 39.1zm-48.8 135.8c-0.2-3.2-1.6-6-4-8l-68.4-59 68.3-58.8c2.3-1.9 3.8-4.7 4-7.7 0.4-3.1-0.7-6.3-2.7-8.6-2.2-2.6-5.4-4-8.8-4-2.7 0-5.4 1-7.5 2.8l-77.8 66.8c-0.5 0.4-1.1 0.9-1.8 1.6l-16 13.7-95.7-82.3c-2.1-1.8-4.7-2.8-7.5-2.8-3.4 0-6.7 1.4-9 4.2-4 4.8-3.3 12 1.4 16.1l68.4 58.9-68.3 58.8c-4.9 3.9-5.6 11.2-1.2 16.5 2.2 2.5 5.3 3.8 8.6 3.8 2.9 0 5.6-1 7.6-2.8l71-61 17.4 14.9c2.1 1.7 4.7 2.6 7.3 2.6 2.5 0 5.2-0.9 7.5-2.8l17-14.6 71 61.2c2.1 1.9 4.8 2.9 7.6 2.9 3.4 0 6.7-1.6 8.8-4 2-2.3 3-5.3 2.8-8.4z"/><path class="f" d="m1343.8 1981.2c-2-1.2-3.6-3.3-4.1-5.8-22.9-98.5-121.6-160-220.1-137.2-5 1.1-10-2-11.1-7-1.2-5 1.9-9.9 6.9-11.1 52.5-12.1 106.6-3.1 152.4 25.5 45.8 28.6 77.8 73.2 89.9 125.7 1.2 5-1.9 9.9-6.9 11.1-2.5 0.6-5 0.1-7-1.2z"/><path class="f" d="m1295.6 1992.4c-2-1.3-3.5-3.3-4.1-5.8-16.7-71.9-88.8-116.9-160.7-100.3-5 1.2-10-1.9-11.2-6.9-1.1-5 2-10 7-11.1 81.9-19 164 32.2 183 114.1 1.1 5-2 10-7 11.1-2.5 0.6-5 0.1-7-1.1z"/><path class="f" d="m1247.4 2003.5c-2-1.2-3.5-3.2-4.1-5.7-10.1-43.9-57.5-73.5-101.4-63.3-5 1.2-9.9-1.9-11.1-6.9-1.1-5 2-10 7-11.2 26.7-6.2 54.3-1.5 77.7 13 23.4 14.6 39.7 37.4 45.9 64.2 1.1 5-2 9.9-7 11.1-2.4 0.6-4.9 0.1-7-1.2z"/><path class="f" d="m1202.4 1991.8c3.8 16.5-6.5 33.1-23.1 37-16.6 3.8-33.2-6.5-37-23.1-3.9-16.6 6.5-33.2 23.1-37 16.5-3.9 33.1 6.5 37 23.1z"/><path class="aI" d="m531.7 3797.9q0.4-0.1 0.7 0.1l108.9 73.3c28.2 14.2 47.4 32.6 46 61.5-0.1 2.4-2 4.3-4.4 4.3-30.2 0.3-193.8 3-277.1 0.2-20.2-0.7-35.1-19.3-31.2-39.2l22.6-94.4z"/><path class="aJ" d="m408.4 3683.5l126 3.9-2.7 110.5c1.2 27.9-133.3 33.8-134.5 5.8z"/><path class="aI" d="m984.1 3797.9q0.4-0.1 0.7 0.1l108.9 73.3c28.2 14.2 47.4 32.6 46 61.5-0.1 2.4-2 4.3-4.4 4.3-30.2 0.3-193.8 3-277.1 0.2-20.2-0.7-35-19.3-31.2-39.2l22.6-94.4z"/><path class="aJ" d="m860.8 3683.5l126 3.9-2.7 110.5c1.2 27.9-133.3 33.8-134.5 5.8z"/><path class="aK" d="m831.7 3755.4l-56.8-826.1-212.1 825.9c-0.3 20.5-179.8 18.1-179.5-2.5l170.4-1126.7 439.8-21.2 13.1 1150.6c0 23.5-174.9 23.5-174.9 0z"/><path class="aJ" d="m371.3 2538.6c-56.9-61 18-327.9 18-327.9l145.9 117.5-13.5 70.1"/><path class="aJ" d="m1443.6 2101.4l-38.9 25.6c0 0-144.3 292.1-257.2 300.1-75.8 5.4-234.5-193.2-234.5-193.2l121.8-136.2 130.6 124.3 181.8-163.4c0 0-9.6-47.7 11.6-55.3 21.1-7.6 22.1 22.4 22.1 22.4l77.3-86.6c7.2-8 20.1-6.9 25.8 2.3 4 6.5 2.9 15-2.7 20.3l-52 48.5 25.4 42.4c10 16.6 5.1 38.1-11.1 48.8z"/><path class="aL" d="m1007.4 2282.8l0.1 1.1 19.7 410.7c0 48-516.5 48-516.5 0l31.1-350.3c-6-0.1-12.1-0.4-17.9-1.2-3-0.5-6-0.8-8.9-1.4-64.6-10.9-117.2-54.1-146.5-83.5-10.1-10.1-13.3-11.8-14.2-11.6 5.6-13.7 86.7-205.9 242.6-292.1 23.8-13.3 49.3-24.4 76.3-32.4 33.5-10.2 69.5-15.6 107.4-14.5 30.8 1 59.8 5.9 86.7 13.8 139.6 41 225.2 166.5 253.2 210.1-11.2 84-113.1 151.3-113.1 151.3z"/><path class="ag" d="m354.3 2246.6c-0.2 0.6-0.3 0.8-0.3 0.8 0 0-0.2-0.8 0.3-0.8z"/><path class="aI" d="m1013.8 2560.9h-130.2c-14.8 0-25.8-13.9-22.2-28.3l53.3-218.7c2.5-10.2 11.7-17.4 22.2-17.4h130.2c14.8 0 25.8 13.9 22.2 28.3l-53.3 218.6c-2.5 10.3-11.7 17.5-22.2 17.5z"/><path class="aJ" d="m521.7 2398.3l347.9 25.9c0 0 8-49.8 28-38 20 11.8 0 28.8 0 28.8 0 0 114.1 1 84.1 72.8-30 71.8-136.9 28.3-136.9 28.3 0 0-384.3 118-473.5 22.5"/><path class="aJ" d="m784.1 1755.3l37.3 41.1 20.2 22.1c0 0-19.3 32.5-12.6 77.7 0.6 4.9 1.6 10 3 15.1 0 0 18.8 95.7-44.6 88.7-63.4-7.1-80.6-83.5-80.6-83.5l-1.3-158z"/><path class="aM" d="m796.6 1772.3l24.8 24.1 20.2 22.1c0 0-19.3 32.5-12.6 77.7 0 0-60.8-41.9-88.9-94.2-28.1-52.4 56.5-29.7 56.5-29.7z"/><path class="aJ" d="m700.4 1699.7c0 0-8.9-136 76.7-141.9 85.6-5.6 134.8 63.3 134.8 63.3 0 0 2 13.9 4.1 35.1 5.8 62.3 12.1 187.4-29.8 209.1-81.3 41.8-180.6-106.8-180.6-106.8-0.2 0-0.2 0-0.3 0-0.4-0.2-0.7-0.2-1.3-0.3-8.3-1.8-45.3-12-43.1-46.5 2.1-31.6 39.5-12 39.5-12z"/><path class="c" d="m704 1758.2c0.5 0.1 0.9 0.3 1.3 0.3 0.1 0 0.1 0 0.3 0v52.1c0 0-114-122.4-85.8-222.4 28.2-100.1 128.9-86.9 128.9-86.9 56.4-4.7 57.1-19.3 106.3-31 49.3-11.7 153.9 42.3 114 139.9-9.7 23.8-29.2 38.1-53 46-73.8 25-189.5-10.3-189.5-10.3 0 0-9.7 79.5-20.9 77.8-11.4-1.7-5.2-24-5.2-24 0 0-37.4-19.6-39.5 12-2.2 34.5 34.8 44.7 43.1 46.5z"/><path class="aJ" d="m876.2 1706c-2.2-6.6 0-13.1 4.8-14.6 4.8-1.5 10.4 2.7 12.4 9.4"/><path class="aJ" d="m806.3 1717.3c-2.1-6.7 0.1-13.2 4.9-14.7 4.8-1.5 10.4 2.7 12.4 9.4"/><path class="c" d="m811.2 1702.6c4.8-1.5 10.3 2.7 12.4 9.4 2 6.6-0.2 13.2-5 14.6-4.8 1.5-10.2-2.6-12.3-9.3-2.1-6.7 0.1-13.2 4.9-14.7z"/><path class="c" d="m881 1691.4c4.8-1.5 10.4 2.7 12.4 9.4 2.1 6.6-0.1 13.2-5 14.6-4.7 1.5-10.2-2.6-12.3-9.3-2-6.7 0.2-13.2 4.9-14.7z"/><path class="c" d="m892.9 1684.7c-5.6-0.7-10-2.1-13.2-1-1.6 0.3-3.2 1.3-4.9 2.7-1.5 1.7-3.2 3.4-5.6 5.1 0.1-2.7 0.6-5.5 1.7-8.1 1.4-2.5 3.8-4.9 7.2-5.8 3.3-0.8 6.5-0.1 9 1.3 2.6 1.4 4.4 3.5 5.8 5.8z"/><path class="c" d="m817.6 1694.7c-5.6-0.6-10-2.1-13.3-1-1.6 0.3-3.2 1.3-4.9 2.7-1.4 1.7-3.2 3.5-5.5 5.1 0.1-2.7 0.5-5.5 1.6-8.1 1.4-2.5 3.9-4.9 7.2-5.8 3.3-0.8 6.5-0.1 9 1.3 2.6 1.4 4.4 3.5 5.9 5.8z"/><path class="c" d="m850.8 1702.4c2 6.6 3.6 13.2 5.1 19.8 1.7 6.6 2.5 13.4 5.1 19.2 1.3 2.9 3 5.3 5.5 7.5 2.2 2.3 5.4 4.8 6.5 8.8 1.1 3.9 0 7.7-1.7 10.8-2 3-4.4 5.5-7 7.7 3.9-5.4 7.9-11.9 5.6-17.5-1.1-2.6-3.5-4.6-6.1-6.9-2.7-2.2-5.1-5.4-6.6-8.7-2.9-6.7-3.5-13.7-4.4-20.3-0.9-6.8-1.7-13.5-2-20.4z"/><path class="f" d="m841 1806q23.9 0.2 40.3-6.5c0 0.2 0.1 0.3 0.1 0.5 2.1 12.9-5.3 24.8-16.4 26.6-11.2 1.7-21.9-7.2-24-20.1 0-0.2 0-0.4 0-0.5z"/><path class="aN" d="m1253.9 1181.9c17.8 13.9 21 39.5 7.1 57.3-13.9 17.8-39.5 21-57.3 7.1-17.8-13.9-21-39.5-7.1-57.3 13.9-17.8 39.5-21 57.3-7.1z"/><path fill-rule="evenodd" class="aO" d="m1321.5 1059.6l34.6 26.9c3.3 2.6 4.3 7.3 2.3 11l-17.3 31.6c-1.5 2.8-1.4 6.2 0.4 8.9q6 8.9 10.4 18.4c1.4 2.9 4.3 4.8 7.5 5l36 1.4c4.2 0.1 7.7 3.4 8.3 7.6l5.3 43.5c0.6 4.2-2.1 8.2-6.2 9.4l-34.5 10.1c-3.1 0.9-5.4 3.4-6.1 6.6q-1.9 10.4-5.6 20.4c-1.1 3-0.3 6.4 1.8 8.8l24.5 26.4c2.9 3.1 3.1 7.9 0.4 11.2l-26.9 34.6c-2.6 3.3-7.3 4.3-11 2.3l-31.6-17.3c-2.8-1.5-6.3-1.4-8.9 0.4q-8.9 6-18.5 10.4c-2.9 1.4-4.8 4.3-4.9 7.5l-1.4 36c-0.2 4.2-3.4 7.7-7.6 8.3l-43.5 5.3c-4.2 0.6-8.2-2.1-9.4-6.2l-10.1-34.5c-0.9-3-3.5-5.4-6.6-6q-10.4-2-20.4-5.6c-3.1-1.1-6.4-0.4-8.8 1.8l-26.4 24.4c-3.1 2.8-7.9 3.1-11.3 0.4l-34.5-26.9c-3.4-2.6-4.3-7.3-2.3-11l17.3-31.5c1.5-2.9 1.4-6.3-0.4-9q-6-8.9-10.5-18.4c-1.3-2.9-4.2-4.8-7.4-5l-36-1.4c-4.2-0.1-7.7-3.4-8.3-7.6l-5.3-43.5c-0.6-4.2 2.1-8.2 6.2-9.4l34.5-10.1c3.1-0.9 5.4-3.4 6-6.6q2-10.4 5.7-20.4c1.1-3 0.3-6.4-1.8-8.8l-24.5-26.4c-2.9-3.1-3.1-7.9-0.5-11.3l27-34.5c2.6-3.3 7.3-4.3 11-2.3l31.6 17.3c2.8 1.5 6.3 1.4 8.9-0.4q8.9-6 18.5-10.4c2.9-1.4 4.8-4.3 4.9-7.5l1.4-36c0.2-4.2 3.4-7.7 7.6-8.3l43.5-5.3c4.2-0.6 8.2 2.1 9.4 6.2l10.1 34.4c0.9 3.1 3.5 5.5 6.6 6.1q10.4 2 20.4 5.6c3.1 1.1 6.5 0.4 8.8-1.8l26.4-24.4c3.1-2.9 7.9-3.1 11.2-0.4zm-39.6 86.3c-37.6-29.4-91.9-22.6-121.3 15-29.3 37.7-22.6 92 15 121.4 37.7 29.4 92 22.6 121.4-15 29.3-37.7 22.6-92-15.1-121.4z"/><path fill-rule="evenodd" class="aP" d="m1421.8 836.1l21.5 17.6c2 1.7 2.6 4.7 1.2 7l-11.4 19.7c-1 1.7-1 3.9 0.1 5.6q3.7 5.7 6.3 11.9c0.9 1.8 2.7 3.1 4.7 3.2l22.7 1.5c2.7 0.1 4.9 2.2 5.1 4.9l2.7 27.6c0.3 2.7-1.4 5.1-4 5.8l-22 5.9c-2 0.5-3.5 2.1-4 4.1q-1.4 6.5-3.8 12.8c-0.8 1.9-0.4 4.1 1 5.6l15 17.1c1.8 2 1.8 5 0.1 7.1l-17.6 21.4c-1.7 2.1-4.6 2.6-7 1.3l-19.7-11.4c-1.7-1-3.9-1-5.6 0.1q-5.7 3.6-11.9 6.3c-1.8 0.8-3.1 2.6-3.2 4.6l-1.5 22.8c-0.1 2.7-2.2 4.8-4.9 5.1l-27.6 2.7c-2.7 0.3-5.1-1.5-5.8-4.1l-5.9-22c-0.5-1.9-2.1-3.5-4.1-3.9q-6.5-1.4-12.8-3.9c-1.9-0.7-4.1-0.3-5.6 1l-17.1 15c-2 1.8-5 1.9-7.1 0.2l-21.4-17.6c-2.1-1.7-2.6-4.7-1.3-7l11.4-19.7c1-1.8 1-3.9-0.1-5.7q-3.6-5.7-6.3-11.8c-0.8-1.9-2.6-3.1-4.6-3.2l-22.7-1.5c-2.7-0.2-4.9-2.3-5.2-4.9l-2.7-27.6c-0.3-2.7 1.5-5.2 4.1-5.9l22-5.8c1.9-0.6 3.5-2.1 3.9-4.1q1.4-6.5 3.9-12.8c0.8-1.9 0.3-4.1-1-5.6l-15-17.1c-1.8-2-1.9-5.1-0.2-7.1l17.6-21.5c1.7-2 4.7-2.6 7-1.2l19.7 11.4c1.8 1 4 1 5.7-0.1q5.7-3.7 11.8-6.3c1.9-0.8 3.1-2.6 3.3-4.7l1.4-22.7c0.2-2.7 2.3-4.9 5-5.1l27.5-2.7c2.7-0.3 5.2 1.4 5.9 4l5.8 22c0.6 2 2.2 3.5 4.1 4q6.6 1.4 12.9 3.8c1.9 0.8 4 0.4 5.5-1l17.1-15c2-1.8 5-1.8 7.1-0.1zm-26.4 54c-23.3-19.2-57.8-15.8-77 7.6-19.1 23.3-15.7 57.8 7.6 77 23.4 19.2 57.8 15.7 77-7.6 19.2-23.4 15.8-57.8-7.6-77z"/><path class="aQ" d="m3979.5 951.8c0 108.8-88.2 197-197 197-108.8 0-196.9-88.2-196.9-197 0-108.8 88.1-197 196.9-197 108.8 0 197 88.2 197 197z"/><path class="f" d="m3899.9 922.3c0 0-27.7 136.1-117.4 174.3-89.7-38.2-117.4-174.3-117.4-174.3 78.3-15.1 117.4-82.9 117.4-82.9 0 0 39.1 67.8 117.4 82.9z"/><path class="an" d="m3767.6 1011.9c-2.8 0-5.5-1.1-7.5-3l-19.8-19.9c-4.1-4.1-4.1-10.8 0-14.9 4.1-4.1 10.8-4.1 14.9 0l12.4 12.4 49-49c4.1-4.1 10.8-4.1 14.9 0 4.1 4.1 4.1 10.8 0 14.9l-56.4 56.5c-2 1.9-4.7 3-7.5 3z"/><path class="aR" d="m2673.3 702.8c0 92.3-74.7 167.1-167 167.1-92.2 0-167-74.8-167-167.1 0-92.2 74.8-167 167-167 92.3 0 167 74.8 167 167z"/><path fill-rule="evenodd" class="f" d="m2506.3 819.1c-64.1 0-116.2-52.2-116.2-116.3 0-64 52.1-116.2 116.2-116.2 64.1 0 116.2 52.2 116.2 116.2 0 64.1-52.1 116.3-116.2 116.3zm0-221.4c-57.9 0-105.1 47.2-105.1 105.1 0 58 47.2 105.1 105.1 105.1 58 0 105.1-47.1 105.1-105.1 0-57.9-47.1-105.1-105.1-105.1z"/><path class="f" d="m2506.3 654.7c-28.7 0-56.4-10.6-77.8-29.9l7.4-8.2c19.4 17.4 44.4 27 70.4 27 26 0 51.1-9.6 70.4-27l7.5 8.2c-21.5 19.3-49.1 29.9-77.9 29.9z"/><path class="f" d="m2436 789.2l-7.5-8.3c21.4-19.3 49.1-29.9 77.8-29.9 28.8 0 56.4 10.6 77.8 29.9l-7.4 8.3c-19.4-17.5-44.4-27.1-70.4-27.1-26 0-51 9.6-70.3 27.1z"/><path fill-rule="evenodd" class="f" d="m2506.3 819.1c-37.4 0-66.6-51.1-66.6-116.3 0-65.1 29.2-116.2 66.6-116.2 37.4 0 66.7 51.1 66.7 116.2 0 65.2-29.3 116.3-66.7 116.3zm0-221.4c-30.1 0-55.5 48.2-55.5 105.1 0 57 25.4 105.1 55.5 105.1 30.1 0 55.5-48.1 55.5-105.1 0-56.9-25.4-105.1-55.5-105.1z"/><path class="f" d="m2511.9 813.5h-11.2v-221.3h11.2z"/><path class="f" d="m2617 708.4h-221.4v-11.1h221.4z"/><g style="display:none"><path fill-rule="evenodd" class="aS" d="m1979 4523.8q-2.2-2.3-2.2-5.6 0-1.4 0.9-3.6l45-106.1q1.4-3.2 3.9-5.2 2.6-2.1 6.3-2.1h1.8q3.7 0 6.2 2.1 2.6 2 4 5.2l45 106.1q0.8 2.2 0.8 3.6 0 3.3-2.2 5.6-2.2 2.3-5.7 2.3-2.5 0-4.5-1.3-2-1.3-3.1-3.6l-11.4-27.6h-60l-11.5 27.6q-1 2.3-3.1 3.6-2 1.3-4.4 1.3-3.6 0-5.8-2.3zm31-44.8h47.6l-23.8-57.3z"/><path fill-rule="evenodd" class="aS" d="m2127.9 4521.4q-9.8-5.5-15.9-16.2-6.1-10.7-6.1-25 0-14.2 6.1-24.9 6.1-10.7 15.9-16.2 9.8-5.6 20.7-5.6 17.3 0 30.2 13.4v-43.2q0-3.5 2.3-5.8 2.4-2.3 5.8-2.3 3.3 0 5.6 2.4 2.3 2.4 2.3 5.7v114.5q0 3.3-2.3 5.6-2.3 2.3-5.6 2.3-3.4 0-5.8-2.3-2.3-2.3-2.3-5.6v-4.6q-12.9 13.4-30.2 13.4-10.9 0-20.7-5.6zm38.2-13q7.2-3.6 12.7-9.6v-37.1q-5.5-6-12.7-9.6-7.1-3.6-15.2-3.6-13.1 0-21 8.3-7.9 8.3-7.9 23.4 0 15.2 7.9 23.5 7.9 8.3 21 8.3 8.1 0 15.2-3.6z"/><path class="aS" d="m2225 4523.8q-2.3-2.3-2.3-5.6v-75.7q0-3.3 2.3-5.7 2.3-2.4 5.6-2.4 3.4 0 5.7 2.4 2.4 2.4 2.4 5.7v7.2q5-7 11.9-11.6 7-4.6 18.1-4.6 9.9 0 16.9 5.3 7.1 5.3 10.1 12.9 10.9-18.2 32.4-18.2 9.9 0 16.5 4.9 6.6 5 9.8 12.7 3.2 7.8 3.2 16.3v50.8q0 3.3-2.4 5.6-2.4 2.3-5.7 2.3-3.4 0-5.7-2.3-2.3-2.3-2.3-5.6v-47.7q0-11.4-4-16.8-4.1-5.4-13.9-5.4-9 0-15 4.7-5.9 4.7-10.4 12.3v52.9q0 3.3-2.4 5.6-2.4 2.3-5.8 2.3-3.3 0-5.6-2.3-2.3-2.3-2.3-5.6v-47.7q0-11.4-4.1-16.8-4-5.4-13.9-5.4-9 0-14.9 4.7-5.9 4.7-10.5 12.3v52.9q0 3.3-2.4 5.6-2.3 2.3-5.7 2.3-3.3 0-5.6-2.3z"/><path class="aS" d="m2385.8 4414.3q-2.6-2.7-2.6-6.4v-0.7q0-3.7 2.6-6.3 2.7-2.7 6.4-2.7h1q3.7 0 6.4 2.7 2.6 2.6 2.6 6.3v0.7q0 3.7-2.6 6.4-2.7 2.6-6.4 2.6h-1q-3.7 0-6.4-2.6zm1.1 109.5q-2.3-2.3-2.3-5.6v-75.7q0-3.3 2.3-5.7 2.3-2.4 5.6-2.4 3.5 0 5.8 2.3 2.3 2.3 2.3 5.8v75.7q0 3.3-2.4 5.6-2.3 2.3-5.7 2.3-3.3 0-5.6-2.3z"/><path class="aS" d="m2430.8 4523.8q-2.3-2.3-2.3-5.6v-75.7q0-3.3 2.3-5.7 2.3-2.4 5.6-2.4 3.4 0 5.8 2.4 2.3 2.4 2.3 5.7v7.2q6.7-7.4 14.5-11.8 7.8-4.4 18.3-4.4 9.7 0 16.9 4.6 7.1 4.6 10.9 12.5 3.8 8 3.8 17.5v50.1q0 3.3-2.4 5.6-2.4 2.3-5.7 2.3-3.4 0-5.6-2.3-2.3-2.3-2.3-5.6v-48.4q0-21.5-19.4-21.5-8.9 0-15.8 4.6-7 4.6-13.2 12.4v52.9q0 3.3-2.3 5.6-2.4 2.3-5.8 2.3-3.3 0-5.6-2.3z"/><path fill-rule="evenodd" class="aS" d="m2587.2 4523.8q-2.3-2.3-2.3-5.6v-108q0-3.3 2.3-5.7 2.3-2.4 5.7-2.4h40.2q16.7 0 27.3 5.7 10.6 5.6 15.2 14.4 4.6 8.8 4.6 19.1 0 10.2-4.6 19-4.6 8.8-15.2 14.5-10.6 5.6-27.3 5.6h-32.1v37.8q0 3.3-2.4 5.6-2.4 2.3-5.7 2.3-3.4 0-5.7-2.3zm44.3-58.5q18 0 25.3-6.9 7.3-6.9 7.3-17.1 0-10.3-7.3-17.1-7.3-6.9-25.3-6.9h-30.5v48z"/><path fill-rule="evenodd" class="aS" d="m2704.2 4523.8q-6.6-3.2-10.5-9.3-3.8-6-3.8-14 0-13 10.3-20.8 10.3-7.7 30.2-7.7h21.4v-1.5q0-11.6-5.8-16.7-5.7-5.1-17.9-5.1-6.7 0-11.9 1-5.2 1.1-11.5 3.2-1.4 0.4-2.3 0.4-2.7 0-4.6-2-1.9-1.9-1.9-4.7 0-4.8 4.5-6.7 15-6.4 30.6-6.4 12.1 0 20.5 4.9 8.4 5 12.4 12.8 3.9 7.9 3.9 17.1v49.9q0 3.3-2.4 5.6-2.3 2.3-5.7 2.3-3.3 0-5.6-2.3-2.3-2.3-2.3-5.6v-4.6q-13.1 13.4-33.2 13.4-7.7 0-14.4-3.2zm35.4-14.7q7.2-3.8 12.2-9.5v-14.8h-19.3q-26.6 0-26.6 14 0 6.3 4.3 10.2 4.4 3.9 14.4 3.9 7.8 0 15-3.8z"/><path class="aS" d="m2797.1 4523.8q-2.3-2.3-2.3-5.6v-75.7q0-3.3 2.3-5.7 2.3-2.4 5.6-2.4 3.4 0 5.8 2.4 2.4 2.4 2.4 5.7v7.2q6.7-7.4 14.4-11.8 7.8-4.4 18.4-4.4 9.7 0 16.8 4.6 7.1 4.6 10.9 12.5 3.8 8 3.8 17.5v50.1q0 3.3-2.4 5.6-2.3 2.3-5.7 2.3-3.3 0-5.6-2.3-2.3-2.3-2.3-5.6v-48.4q0-21.5-19.4-21.5-8.8 0-15.8 4.6-7 4.6-13.1 12.4v52.9q0 3.3-2.4 5.6-2.4 2.3-5.8 2.3-3.3 0-5.6-2.3z"/><path fill-rule="evenodd" class="aS" d="m2908.8 4514.7q-12.1-12.2-12.1-34.5 0-12.5 4.6-23.1 4.6-10.5 14.1-17.1 9.6-6.5 23.5-6.5 13 0 22.6 6.1 9.5 6.1 14.4 16.2 5 10.2 5 22.2 0 3.3-2.2 5.6-2.2 2.3-5.9 2.3h-59.8q1.4 12.3 9.1 19.2 7.8 6.9 21.7 6.9 7.4 0 13-1.4 5.6-1.4 10.8-4.1 1.5-0.7 3.2-0.7 2.8 0 5 2 2.1 1.9 2.1 4.9 0 3.9-4.6 6.5-6.9 3.9-13.6 5.8-6.7 2-17.3 2-21.5 0-33.6-12.3zm56.2-41.9q-0.5-8.6-4.5-14.4-4-5.8-9.8-8.6-5.8-2.7-11.8-2.7-6 0-11.8 2.7-5.8 2.8-9.7 8.6-3.9 5.8-4.4 14.4z"/><path class="aS" d="m3004.3 4523.8q-2.3-2.3-2.3-5.6v-114.5q0-3.3 2.3-5.7 2.3-2.4 5.7-2.4 3.5 0 5.8 2.3 2.3 2.3 2.3 5.8v114.5q0 3.3-2.4 5.6-2.4 2.3-5.7 2.3-3.4 0-5.7-2.3z"/></g></svg>